<svg width="154" height="32" viewBox="0 0 154 32" fill="none" xmlns="http://www.w3.org/2000/svg">
  <path d="M92.6305 15.9623C92.6305 17.1742 91.7885 17.8771 90.2225 17.8771H87.7495V11.064H90.1551C91.4638 11.064 92.2841 11.6215 92.2841 12.8261C92.2841 13.5677 91.8439 14.0864 91.3098 14.2512C92.0748 14.4039 92.6281 15.0607 92.6281 15.9623H92.6305ZM88.5698 11.9026V13.9046H90.1263C90.9947 13.9046 91.3964 13.558 91.3964 12.8842C91.3964 12.2104 90.9658 11.9026 90.107 11.9026H88.5698ZM91.7404 15.926C91.7404 15.2231 91.3194 14.7408 90.261 14.7408H88.5698V17.0409H90.184C91.1871 17.0409 91.7404 16.6846 91.7404 15.9236V15.926Z" fill="white"/>
  <path d="M97.5355 14.799V17.8795H97.1242L96.8572 17.1573C96.6864 17.6081 96.2076 17.974 95.2045 17.974C94.2014 17.974 93.4099 17.5014 93.4099 16.4447C93.4099 15.4728 94.1075 14.9153 95.3103 14.9153H96.7321V14.8669C96.7321 14.1543 96.2461 13.7592 95.4042 13.7592C94.8028 13.7592 94.0859 13.8852 93.8381 13.9604L93.79 13.941V13.1509C94.0282 13.083 94.8028 12.94 95.5004 12.94C96.7706 12.94 97.5355 13.6138 97.5355 14.7966V14.799ZM96.7345 15.9357V15.6861H95.2839C94.5863 15.6861 94.2519 15.9745 94.2519 16.4447C94.2519 16.9149 94.6729 17.196 95.2646 17.196C96.2678 17.196 96.7345 16.6483 96.7345 15.9357Z" fill="white"/>
  <path d="M103.112 14.77V17.8772H102.291V15.0584C102.291 14.1544 101.899 13.7593 101.165 13.7593C100.307 13.7593 99.8665 14.261 99.8665 15.0778V17.8772H99.0461V13.037H99.4575L99.7149 13.7593C99.8761 13.3642 100.287 12.9425 101.271 12.9425C102.407 12.9425 103.114 13.6163 103.114 14.77H103.112Z" fill="white"/>
  <path d="M104.257 15.4632C104.257 14.0017 105.327 12.9425 106.797 12.9425C107.189 12.9425 107.608 13.0104 107.916 13.1267V13.9144L107.868 13.9338C107.639 13.8175 107.314 13.7593 106.884 13.7593C105.794 13.7593 105.099 14.4137 105.099 15.4438C105.099 16.4738 105.816 17.1573 106.913 17.1573C107.295 17.1573 107.658 17.0992 108.019 16.9828L108.067 17.0022V17.7923C107.675 17.9087 107.247 17.9765 106.845 17.9765C105.318 17.9765 104.257 16.9465 104.257 15.4656V15.4632Z" fill="white"/>
  <path d="M108.734 15.4535C108.734 14.0017 109.814 12.9425 111.226 12.9425C112.638 12.9425 113.67 14.0695 113.67 15.4438C113.67 16.818 112.657 17.9741 111.197 17.9741C109.737 17.9741 108.734 16.8956 108.734 15.4535ZM112.83 15.4632C112.83 14.4719 112.19 13.7617 111.216 13.7617C110.242 13.7617 109.573 14.4743 109.573 15.4559C109.573 16.4375 110.213 17.1598 111.206 17.1598C112.2 17.1598 112.83 16.4375 112.83 15.4656V15.4632Z" fill="white"/>
  <path d="M117.384 11.0666H118.31L121.873 16.5321H121.912V11.0666H122.732V17.8796H121.815L118.243 12.4239H118.204V17.8796H117.384V11.0666Z" fill="white"/>
  <path d="M128.135 14.799V17.8795H127.724L127.456 17.1573C127.286 17.6081 126.807 17.974 125.804 17.974C124.801 17.974 124.007 17.5014 124.007 16.4447C124.007 15.4728 124.704 14.9153 125.907 14.9153H127.331V14.8669C127.331 14.1543 126.843 13.7592 126.003 13.7592C125.402 13.7592 124.685 13.8852 124.437 13.9604L124.389 13.941V13.1509C124.627 13.083 125.402 12.94 126.1 12.94C127.37 12.94 128.135 13.6138 128.135 14.7966V14.799ZM127.334 15.9357V15.6861H125.881C125.183 15.6861 124.849 15.9745 124.849 16.4447C124.849 16.9149 125.27 17.196 125.862 17.196C126.865 17.196 127.331 16.6483 127.331 15.9357H127.334Z" fill="white"/>
  <path d="M129.28 15.4632C129.28 14.0017 130.35 12.9425 131.82 12.9425C132.212 12.9425 132.631 13.0104 132.939 13.1267V13.9144L132.891 13.9338C132.662 13.8175 132.337 13.7593 131.907 13.7593C130.817 13.7593 130.122 14.4137 130.122 15.4438C130.122 16.4738 130.839 17.1573 131.936 17.1573C132.318 17.1573 132.681 17.0992 133.042 16.9828L133.09 17.0022V17.7923C132.698 17.9087 132.27 17.9765 131.868 17.9765C130.341 17.9765 129.28 16.9465 129.28 15.4656V15.4632Z" fill="white"/>
  <path d="M134.045 11.624C134.045 11.3162 134.274 11.0956 134.589 11.0956C134.904 11.0956 135.123 11.3162 135.123 11.624C135.123 11.9318 134.914 12.1524 134.589 12.1524C134.264 12.1524 134.045 11.9221 134.045 11.624ZM134.178 13.0395H134.998V17.8796H134.178V13.0395Z" fill="white"/>
  <path d="M136.239 15.4535C136.239 14.0017 137.319 12.9425 138.731 12.9425C140.144 12.9425 141.176 14.0695 141.176 15.4438C141.176 16.818 140.163 17.9741 138.703 17.9741C137.242 17.9741 136.239 16.8956 136.239 15.4535ZM140.338 15.4632C140.338 14.4719 139.699 13.7617 138.724 13.7617C137.75 13.7617 137.081 14.4743 137.081 15.4559C137.081 16.4375 137.721 17.1598 138.715 17.1598C139.708 17.1598 140.338 16.4375 140.338 15.4656V15.4632Z" fill="white"/>
  <path d="M146.449 14.77V17.8772H145.628V15.0584C145.628 14.1544 145.236 13.7593 144.502 13.7593C143.644 13.7593 143.203 14.261 143.203 15.0778V17.8772H142.383V13.037H142.794L143.052 13.7593C143.213 13.3642 143.624 12.9425 144.608 12.9425C145.744 12.9425 146.451 13.6163 146.451 14.77H146.449Z" fill="white"/>
  <path d="M151.7 14.799V17.8795H151.289L151.022 17.1573C150.851 17.6081 150.372 17.974 149.369 17.974C148.366 17.974 147.572 17.5014 147.572 16.4447C147.572 15.4728 148.27 14.9153 149.472 14.9153H150.897V14.8669C150.897 14.1543 150.408 13.7592 149.569 13.7592C148.967 13.7592 148.25 13.8852 148.003 13.9604L147.955 13.941V13.1509C148.193 13.083 148.967 12.94 149.665 12.94C150.935 12.94 151.7 13.6138 151.7 14.7966V14.799ZM150.897 15.9357V15.6861H149.444C148.746 15.6861 148.412 15.9745 148.412 16.4447C148.412 16.9149 148.833 17.196 149.424 17.196C150.427 17.196 150.894 16.6483 150.894 15.9357H150.897Z" fill="white"/>
  <path d="M153.177 10.8242H154V17.8771H153.177V10.8242Z" fill="white"/>
  <path d="M91.904 21.0867V28.1397H91.4926L91.2352 27.3811C91.074 27.7858 90.4702 28.2367 89.5441 28.2367C88.245 28.2367 87.3285 27.2744 87.3285 25.8008C87.3285 24.1454 88.399 23.2026 89.9073 23.2026C90.3956 23.2026 90.8142 23.2802 91.0812 23.4038V21.0843H91.9016L91.904 21.0867ZM91.0812 26.1377V24.1939C90.8238 24.1067 90.4125 24.0194 89.9747 24.0194C88.9042 24.0194 88.168 24.6738 88.168 25.7814C88.168 26.8115 88.7887 27.4174 89.621 27.4174C90.4534 27.4174 91.0812 26.9254 91.0812 26.1377Z" fill="white"/>
  <path d="M97.4969 26.0012H93.9631C94.1074 26.9052 94.87 27.4166 95.8828 27.4166C96.4264 27.4166 96.9052 27.3197 97.1818 27.2324L97.2299 27.2518V28.0322C96.9629 28.1292 96.3615 28.2334 95.7697 28.2334C94.2133 28.2334 93.1235 27.2227 93.1235 25.6934C93.1235 24.164 94.2494 23.2018 95.5219 23.2018C96.7945 23.2018 97.5763 24.1155 97.5763 25.2983C97.5763 25.5576 97.5282 25.8654 97.4993 26.0012H97.4969ZM96.7344 25.1165C96.7344 24.4912 96.1811 24.0186 95.4834 24.0186C94.7473 24.0186 94.1459 24.5372 93.9944 25.2886C94.2229 25.2304 94.5669 25.2013 95.0168 25.2013H96.7368V25.1165H96.7344Z" fill="white"/>
  <path d="M102.185 22.1627V24.2592H105.118V25.0954H102.185V27.2985H105.308V28.1347H101.344V21.3217H105.308V22.1578H102.185V22.1627Z" fill="white"/>
  <path d="M113.701 25.0226V28.1394H112.881V25.311C112.881 24.4845 112.546 24.0216 111.762 24.0216C111.026 24.0216 110.55 24.4651 110.55 25.2528V28.1394H109.729V25.2528C109.729 24.4627 109.376 24.0216 108.697 24.0216C107.877 24.0216 107.408 24.4821 107.408 25.3498V28.1394H106.588V23.2993H106.999L107.266 24.0506C107.466 23.5998 107.887 23.2048 108.774 23.2048C109.52 23.2048 110.045 23.532 110.331 24.07C110.579 23.6192 111.057 23.2048 111.897 23.2048C113.035 23.2048 113.703 23.9076 113.703 25.025L113.701 25.0226Z" fill="white"/>
  <path d="M119.783 25.6479C119.783 27.2645 118.76 28.2364 117.175 28.2364C116.754 28.2364 116.326 28.1588 116.027 28.0449V30.3547H115.207V23.3017H115.619L115.886 24.0603C116.076 23.6095 116.689 23.2048 117.577 23.2048C118.972 23.2048 119.783 24.2809 119.783 25.6503V25.6479ZM118.943 25.6673C118.943 24.7632 118.438 24.0216 117.492 24.0216C116.547 24.0216 116.03 24.6081 116.03 25.311V27.2354C116.278 27.3323 116.66 27.4196 117.148 27.4196C118.19 27.4196 118.943 26.7943 118.943 25.6673Z" fill="white"/>
  <path d="M123.6 23.2606V24.041L123.562 24.0604C123.437 24.041 123.275 24.0216 123.035 24.0216C122.289 24.0216 121.803 24.4264 121.803 25.3789V28.1419H120.983V23.3018H121.298L121.652 24.0241C121.796 23.5611 122.368 23.2073 123.085 23.2073C123.314 23.2073 123.497 23.2364 123.6 23.2654V23.2606Z" fill="white"/>
  <path d="M128.433 26.0012H124.899C125.044 26.9052 125.806 27.4166 126.819 27.4166C127.363 27.4166 127.841 27.3197 128.118 27.2324L128.166 27.2518V28.0322C127.899 28.1292 127.298 28.2334 126.706 28.2334C125.15 28.2334 124.06 27.2227 124.06 25.6934C124.06 24.164 125.186 23.2018 126.458 23.2018C127.731 23.2018 128.513 24.1155 128.513 25.2983C128.513 25.5576 128.464 25.8654 128.436 26.0012H128.433ZM127.668 25.1165C127.668 24.4912 127.115 24.0186 126.417 24.0186C125.681 24.0186 125.08 24.5372 124.928 25.2886C125.157 25.2304 125.501 25.2013 125.951 25.2013H127.671V25.1165H127.668Z" fill="white"/>
  <path d="M134.016 23.636V28.1101C134.016 29.7752 133.071 30.449 131.543 30.449C131.019 30.449 130.579 30.3715 130.341 30.3133V29.5232L130.389 29.5038C130.608 29.5619 131.058 29.6298 131.553 29.6298C132.527 29.6298 133.196 29.2153 133.196 28.1101V27.5503C132.977 27.9647 132.337 28.2337 131.63 28.2337C130.206 28.2337 129.443 27.0898 129.443 25.8076C129.443 24.065 130.608 23.1997 131.993 23.1997C133.025 23.1997 133.807 23.5172 134.019 23.6336L134.016 23.636ZM133.196 26.0985V24.2419C132.852 24.0989 132.395 24.0213 132.032 24.0213C131.106 24.0213 130.283 24.6273 130.283 25.7737C130.283 26.6777 130.771 27.4194 131.753 27.4194C132.631 27.4194 133.194 26.8716 133.194 26.1009L133.196 26.0985Z" fill="white"/>
  <path d="M135.181 25.7127C135.181 24.2609 136.261 23.2018 137.673 23.2018C139.085 23.2018 140.117 24.3288 140.117 25.703C140.117 27.0773 139.104 28.2334 137.644 28.2334C136.184 28.2334 135.181 27.1548 135.181 25.7127ZM139.278 25.7224C139.278 24.7311 138.638 24.021 137.663 24.021C136.689 24.021 136.02 24.7336 136.02 25.7152C136.02 26.6968 136.66 27.419 137.654 27.419C138.647 27.419 139.278 26.6968 139.278 25.7249V25.7224Z" fill="white"/>
  <path d="M141.005 28.0516V27.2615L141.053 27.2421C141.416 27.3487 142.018 27.4166 142.552 27.4166C143.124 27.4166 143.449 27.2154 143.449 26.8882C143.449 26.561 143.382 26.4738 142.352 25.9842C141.272 25.4655 141.015 25.0898 141.015 24.5494C141.015 23.7035 141.635 23.2018 142.686 23.2018C143.088 23.2018 143.68 23.289 144.072 23.4029V24.1931L144.024 24.2125C143.632 24.1058 142.944 24.021 142.581 24.021C142.075 24.021 141.854 24.2125 141.854 24.5227C141.854 24.7626 141.979 24.9469 142.944 25.388C144.053 25.8969 144.291 26.2653 144.291 26.8495C144.291 27.7341 143.651 28.2358 142.523 28.2358C142.047 28.2358 141.349 28.1486 141.005 28.0516Z" fill="white"/>
  <path d="M25.0809 18.3111C25.0809 27.2497 19.1318 31.9954 11.0538 31.9954C5.74941 31.9954 1.43615 30.3981 0 29.6492V0H4.84009C5.53531 0 6.09822 0.567148 6.09822 1.2676V9.07194C7.289 7.0748 10.3104 5.7248 13.979 5.7248C21.0178 5.7248 25.0833 11.5684 25.0833 18.3111H25.0809ZM18.8335 18.6117C18.8335 14.7168 16.6035 11.4205 12.4394 11.4205C8.57359 11.4205 6.09341 13.7182 6.09341 17.1138V25.7034C7.58008 26.2027 9.36504 26.4523 10.8517 26.4523C15.2131 26.4523 18.8335 23.7548 18.8335 18.6117Z" fill="white"/>
  <path d="M41.4727 5.72703H38.3791C32.3819 5.72703 28.7134 9.17355 28.7134 15.2667V31.9976H34.8597V17.4142C34.8597 13.4562 36.4739 11.699 39.4665 11.6239C39.5146 11.6239 40.1929 11.6239 40.2411 11.6239C43.3275 11.6457 44.9945 13.3956 44.9945 17.4166V32H51.1409V15.2643C51.1409 9.17112 47.4723 5.72461 41.4751 5.72461L41.4727 5.72703Z" fill="white"/>
  <path d="M80.2824 20.524H61.3839C61.5403 22.4048 62.1922 23.8784 63.3445 24.9424C64.4944 26.0089 65.9113 26.5421 67.5904 26.5421C70.0177 26.5421 71.7425 25.4926 72.7697 23.3913C72.7697 23.3913 79.6497 23.9172 79.5559 24.1717C78.7596 26.3288 77.4149 28.1296 75.5217 29.5717C73.4048 31.1859 70.8091 31.993 67.7299 31.993C65.2401 31.993 63.0101 31.438 61.0327 30.3231C59.0577 29.2106 57.5181 27.6352 56.4139 25.5993C55.3098 23.5634 54.7565 21.2124 54.7565 18.5463C54.7565 15.8802 55.3001 13.4856 56.3899 11.4472C57.4796 9.41132 59.0024 7.84319 60.9629 6.74525C62.9235 5.64731 65.1776 5.09955 67.7299 5.09955C70.2823 5.09955 72.3872 5.63276 74.3333 6.69919C76.2771 7.76563 77.7854 9.27802 78.8607 11.2364C79.9336 13.1947 80.47 15.4439 80.47 17.984C80.47 18.9244 80.4075 19.7702 80.2824 20.5216V20.524ZM73.7031 16.1056C73.6718 14.4139 73.0656 13.059 71.8844 12.0386C70.7008 11.0207 69.2551 10.5117 67.5447 10.5117C65.9257 10.5117 64.5665 11.0061 63.4624 11.9926C62.3582 12.979 61.6822 14.3508 61.432 16.1056H73.7031Z" fill="white"/>
</svg>
